<svg id="Group_100" data-name="Group 100" xmlns="http://www.w3.org/2000/svg" xmlns:xlink="http://www.w3.org/1999/xlink" width="1920" height="1092" viewBox="0 0 1920 1092">
  <defs>
    <radialGradient id="radial-gradient" cx="0.5" cy="0.5" r="0.5" gradientUnits="objectBoundingBox">
      <stop offset="0" stop-color="#4a026d"/>
      <stop offset="1" stop-color="#22045e"/>
    </radialGradient>
    <clipPath id="clip-path">
      <rect id="Rectangle_585" data-name="Rectangle 585" width="1920" height="1080" fill="#fff"/>
    </clipPath>
    <clipPath id="clip-path-2">
      <rect id="Rectangle_567" data-name="Rectangle 567" width="2101" height="1176"/>
    </clipPath>
    <clipPath id="clip-path-3">
      <rect id="Rectangle_561" data-name="Rectangle 561" width="3470" height="1783" fill="url(#radial-gradient)"/>
    </clipPath>
    <clipPath id="clip-path-4">
      <rect id="Rectangle_584" data-name="Rectangle 584" width="1002" height="1092" transform="translate(918)" fill="#fff"/>
    </clipPath>
    <clipPath id="clip-path-5">
      <rect id="Rectangle_561-2" data-name="Rectangle 561" width="1002" height="1080" fill="url(#radial-gradient)"/>
    </clipPath>
    <clipPath id="clip-path-17">
      <rect id="Rectangle_587" data-name="Rectangle 587" width="486" height="654" transform="translate(0 426)" fill="#fff"/>
    </clipPath>
  </defs>
  <g id="Mask_Group_11" data-name="Mask Group 11" clip-path="url(#clip-path)">
    <g id="Component_6_1" data-name="Component 6 – 1" transform="translate(-181)">
      <g id="Mask_Group_7" data-name="Mask Group 7" clip-path="url(#clip-path-2)">
        <g id="Component_10_4" data-name="Component 10 – 4" transform="translate(-1357)">
          <g id="Mask_Group_1" data-name="Mask Group 1" clip-path="url(#clip-path-3)">
            <path id="Path_932" data-name="Path 932" d="M119.772,289.433s561.016,920.719,2202.285,1333.459S3814.12,2327.64,3814.12,2327.64l268.571-1201.722L3885.739,61.777Z" transform="translate(-120.853 -289.433)" fill="url(#radial-gradient)"/>
          </g>
        </g>
      </g>
    </g>
  </g>
  <g id="Component_8_1" data-name="Component 8 – 1" transform="translate(918)">
    <g id="Mask_Group_10" data-name="Mask Group 10" transform="translate(-918)" clip-path="url(#clip-path-4)">
      <g id="Group_91" data-name="Group 91">
        <g id="Component_10_5" data-name="Component 10 – 5" transform="translate(918 -31)">
          <g id="Mask_Group_1-2" data-name="Mask Group 1" transform="translate(0 31)" clip-path="url(#clip-path-5)">
            <path id="Path_932-2" data-name="Path 932" d="M119.772,199.778s162,558.124,635.946,808.32S1186.575,1435.3,1186.575,1435.3l77.554-728.463L1207.257,61.777Z" transform="translate(-120.084 -199.778)" fill="url(#radial-gradient)"/>
          </g>
          <g id="Mask_Group_9" data-name="Mask Group 9" transform="translate(67)" clip-path="url(#clip-path-5)">
            <path id="Path_948" data-name="Path 948" d="M119.772,199.778s162,558.124,635.946,808.32S1186.575,1435.3,1186.575,1435.3l77.554-728.463L1207.257,61.777Z" transform="translate(-120.084 -199.778)" fill="url(#radial-gradient)"/>
          </g>
        </g>
        <g id="Component_10_6" data-name="Component 10 – 6" transform="translate(1059 -105)">
          <g id="Mask_Group_1-3" data-name="Mask Group 1" transform="translate(0 31)" clip-path="url(#clip-path-5)">
            <path id="Path_932-3" data-name="Path 932" d="M119.772,199.778s162,558.124,635.946,808.32S1186.575,1435.3,1186.575,1435.3l77.554-728.463L1207.257,61.777Z" transform="translate(-120.084 -199.778)" fill="url(#radial-gradient)"/>
          </g>
          <g id="Mask_Group_9-2" data-name="Mask Group 9" transform="translate(67)" clip-path="url(#clip-path-5)">
            <path id="Path_948-2" data-name="Path 948" d="M119.772,199.778s162,558.124,635.946,808.32S1186.575,1435.3,1186.575,1435.3l77.554-728.463L1207.257,61.777Z" transform="translate(-120.084 -199.778)" fill="url(#radial-gradient)"/>
          </g>
        </g>
        <g id="Component_10_7" data-name="Component 10 – 7" transform="translate(1203 -155)">
          <g id="Mask_Group_1-4" data-name="Mask Group 1" transform="translate(0 31)" clip-path="url(#clip-path-5)">
            <path id="Path_932-4" data-name="Path 932" d="M119.772,199.778s162,558.124,635.946,808.32S1186.575,1435.3,1186.575,1435.3l77.554-728.463L1207.257,61.777Z" transform="translate(-120.084 -199.778)" fill="url(#radial-gradient)"/>
          </g>
          <g id="Mask_Group_9-3" data-name="Mask Group 9" transform="translate(67)" clip-path="url(#clip-path-5)">
            <path id="Path_948-3" data-name="Path 948" d="M119.772,199.778s162,558.124,635.946,808.32S1186.575,1435.3,1186.575,1435.3l77.554-728.463L1207.257,61.777Z" transform="translate(-120.084 -199.778)" fill="url(#radial-gradient)"/>
          </g>
        </g>
        <g id="Component_10_8" data-name="Component 10 – 8" transform="translate(1337 -212)">
          <g id="Mask_Group_1-5" data-name="Mask Group 1" transform="translate(0 31)" clip-path="url(#clip-path-5)">
            <path id="Path_932-5" data-name="Path 932" d="M119.772,199.778s162,558.124,635.946,808.32S1186.575,1435.3,1186.575,1435.3l77.554-728.463L1207.257,61.777Z" transform="translate(-120.084 -199.778)" fill="url(#radial-gradient)"/>
          </g>
          <g id="Mask_Group_9-4" data-name="Mask Group 9" transform="translate(67)" clip-path="url(#clip-path-5)">
            <path id="Path_948-4" data-name="Path 948" d="M119.772,199.778s162,558.124,635.946,808.32S1186.575,1435.3,1186.575,1435.3l77.554-728.463L1207.257,61.777Z" transform="translate(-120.084 -199.778)" fill="url(#radial-gradient)"/>
          </g>
        </g>
        <g id="Component_10_9" data-name="Component 10 – 9" transform="translate(1476 -264)">
          <g id="Mask_Group_1-6" data-name="Mask Group 1" transform="translate(0 31)" clip-path="url(#clip-path-5)">
            <path id="Path_932-6" data-name="Path 932" d="M119.772,199.778s162,558.124,635.946,808.32S1186.575,1435.3,1186.575,1435.3l77.554-728.463L1207.257,61.777Z" transform="translate(-120.084 -199.778)" fill="url(#radial-gradient)"/>
          </g>
          <g id="Mask_Group_9-5" data-name="Mask Group 9" transform="translate(67)" clip-path="url(#clip-path-5)">
            <path id="Path_948-5" data-name="Path 948" d="M119.772,199.778s162,558.124,635.946,808.32S1186.575,1435.3,1186.575,1435.3l77.554-728.463L1207.257,61.777Z" transform="translate(-120.084 -199.778)" fill="url(#radial-gradient)"/>
          </g>
        </g>
        <g id="Component_10_10" data-name="Component 10 – 10" transform="translate(1594 -357)">
          <g id="Mask_Group_1-7" data-name="Mask Group 1" transform="translate(0 31)" clip-path="url(#clip-path-5)">
            <path id="Path_932-7" data-name="Path 932" d="M119.772,199.778s162,558.124,635.946,808.32S1186.575,1435.3,1186.575,1435.3l77.554-728.463L1207.257,61.777Z" transform="translate(-120.084 -199.778)" fill="url(#radial-gradient)"/>
          </g>
          <g id="Mask_Group_9-6" data-name="Mask Group 9" transform="translate(67)" clip-path="url(#clip-path-5)">
            <path id="Path_948-6" data-name="Path 948" d="M119.772,199.778s162,558.124,635.946,808.32S1186.575,1435.3,1186.575,1435.3l77.554-728.463L1207.257,61.777Z" transform="translate(-120.084 -199.778)" fill="url(#radial-gradient)"/>
          </g>
        </g>
      </g>
    </g>
  </g>
  <g id="undraw_horror_movie_3988" transform="translate(971 186.652)">
    <ellipse id="Ellipse_24" data-name="Ellipse 24" cx="362.964" cy="56.945" rx="362.964" ry="56.945" transform="translate(0 450.8)" fill="#6c63ff" opacity="0.1"/>
    <rect id="Rectangle_554" data-name="Rectangle 554" width="428.312" height="98.377" transform="translate(146.677 395.638)" fill="#46455b"/>
    <path id="Path_831" data-name="Path 831" d="M193.987,413.5,153.5,444.043l31.253,28.412,17.758-28.412,24.15-30.543Z" transform="translate(-44.469 -119.79)" fill="#46455b"/>
    <path id="Path_832" data-name="Path 832" d="M782.408,454.2l-5.682-6.393L740.5,427.21l33.384-.71,51.852,21.309-21.309,13.5Z" transform="translate(-214.522 -123.556)" fill="#46455b"/>
    <path id="Path_833" data-name="Path 833" d="M205.051,451.856,240.567,413.5v88.077l-24.15,19.888-14.916-20.6Z" transform="translate(-58.374 -119.79)" fill="#46455b"/>
    <path id="Path_834" data-name="Path 834" d="M783.118,471.539l-6.393-23.44L764.65,432.472,740.5,427.5v98.022h49.011Z" transform="translate(-214.522 -123.846)" fill="#46455b"/>
    <path id="Path_835" data-name="Path 835" d="M263.045,376.5h331.64a11.045,11.045,0,0,1,11.045,11.045V488.728H252V387.545A11.045,11.045,0,0,1,263.045,376.5Z" transform="translate(-73.004 -109.071)" fill="#46455b"/>
    <path id="Path_836" data-name="Path 836" d="M222.5,553.333,246.65,523.5H590.436l36.225,29.833Z" transform="translate(-64.458 -151.657)" fill="#46455b"/>
    <path id="Path_837" data-name="Path 837" d="M222.5,553.333,246.65,523.5H590.436l36.225,29.833Z" transform="translate(-64.458 -151.657)" opacity="0.05"/>
    <rect id="Rectangle_555" data-name="Rectangle 555" width="49.011" height="169.762" transform="translate(109.031 324.253)" fill="#46455b"/>
    <rect id="Rectangle_556" data-name="Rectangle 556" width="49.011" height="169.762" transform="translate(109.031 324.253)" fill="#fff" opacity="0.05"/>
    <rect id="Rectangle_557" data-name="Rectangle 557" width="49.011" height="169.762" transform="translate(562.204 324.253)" fill="#46455b"/>
    <rect id="Rectangle_558" data-name="Rectangle 558" width="49.011" height="169.762" transform="translate(562.204 324.253)" fill="#fff" opacity="0.05"/>
    <ellipse id="Ellipse_33" data-name="Ellipse 33" cx="57.5" cy="74.5" rx="57.5" ry="74.5" transform="translate(255 142.348)" fill="#2f2e41"/>
    <rect id="Rectangle_559" data-name="Rectangle 559" width="64" height="88" transform="translate(274 185.348)" fill="#2f2e41"/>
    <rect id="Rectangle_560" data-name="Rectangle 560" width="64" height="88" transform="translate(274 185.348)" opacity="0.1"/>
    <path id="Path_838" data-name="Path 838" d="M474.7,375.944a18.525,18.525,0,0,1-16.55,6.634c-.284,4.418,2.713,8.3,5.547,11.7l22.183,26.615a1.243,1.243,0,0,0,2.2.185l33.881-32.141c-3.381,1.421-7.38-.831-9.234-4s-2.039-6.975-2.209-10.654q-.369-8.24-.71-16.465a4.74,4.74,0,0,0-1.08-3.4,4.631,4.631,0,0,0-2.415-.916c-5.349-.916-22.019-5.682-25.109-.057-1.421,2.564-.781,7.565-1.421,10.463C478.829,368.209,477.473,372.492,474.7,375.944Z" transform="translate(-195.937 -138.902)" fill="#fbbebe"/>
    <path id="Path_839" data-name="Path 839" d="M474.7,375.944a18.525,18.525,0,0,1-16.55,6.634c-.284,4.418,2.713,8.3,5.547,11.7l22.183,26.615a1.243,1.243,0,0,0,2.2.185l33.881-32.141c-3.381,1.421-7.38-.831-9.234-4s-2.039-6.975-2.209-10.654q-.369-8.24-.71-16.465a4.74,4.74,0,0,0-1.08-3.4,4.631,4.631,0,0,0-2.415-.916c-5.349-.916-22.019-5.682-25.109-.057-1.421,2.564-.781,7.565-1.421,10.463C478.829,368.209,477.473,372.492,474.7,375.944Z" transform="translate(-195.937 -138.902)" opacity="0.1"/>
    <ellipse id="Ellipse_34" data-name="Ellipse 34" cx="33.5" cy="34" rx="33.5" ry="34" transform="translate(270 164.348)" fill="#fbbebe"/>
    <path id="Path_840" data-name="Path 840" d="M463.859,410.124,458.5,393.24c-2.131-6.762-5.157-14.426-11.9-16.607-4.262-1.364-8.857-.114-13.3-.49-8.637-.746-17.047-7.614-25.123-4.468-9.944,3.864-9.859,19.136-18.688,25.13,0,14.27,4.61,27.524,7.1,41.567s3.211,29.2-3.3,41.908c-2.756,5.384-6.7,10.072-9.639,15.357a47.7,47.7,0,0,0-5.64,28.611q56.554.71,113.123.341c-.348-4.887-2.529-9.7-2.884-14.59a10.094,10.094,0,0,1,.341-4.4c.831-2.131,2.948-3.4,4.759-4.787a24.541,24.541,0,0,0,6.059-6.8c2.514-4.184,3.708-9.007,4.873-13.751l14.121-57.534c1.683-6.854,3.317-14.334.391-20.755-3.211-7.053-10.91-10.718-18.02-13.808-4.262-1.868-9.163-3.758-13.5-2.039-3.551,1.421-5.782,4.823-8.026,7.906A78.6,78.6,0,0,1,463.859,410.124Z" transform="translate(-172.635 -144.727)" fill="#4e4085"/>
    <path id="Path_841" data-name="Path 841" d="M387.032,413.5c-1.108,4.148-.49,8.58-1.307,12.785-1.371,7.039-6.506,12.636-9.944,18.915a43.023,43.023,0,0,0-3.765,31.907c.867,3.132,2.408,6.485,5.448,7.636,2.174.831,4.6.313,6.925.518,3.069.27,6.258,1.79,9.092.582,3.5-1.492,4.2-6.045,4.581-9.831a115.168,115.168,0,0,1,5.633-25.777c2.841-8.353,6.741-16.642,6.684-25.471-.043-6.222-8.012-.5-13.212-4.184C391.3,416.449,388.957,406.334,387.032,413.5Z" transform="translate(-170.554 -156.358)" opacity="0.1"/>
    <path id="Path_842" data-name="Path 842" d="M385.032,410.453c-1.108,4.148-.49,8.58-1.307,12.785-1.371,7.039-6.506,12.636-9.944,18.915a43.023,43.023,0,0,0-3.765,31.907c.867,3.132,2.408,6.485,5.448,7.636,2.174.831,4.6.313,6.925.519,3.068.27,6.258,1.79,9.092.582,3.5-1.492,4.2-6.045,4.581-9.831A115.166,115.166,0,0,1,401.7,447.19c2.841-8.353,6.741-16.642,6.684-25.471-.043-6.222-2.777-13.1-7.977-16.784C394.536,400.8,386.957,403.286,385.032,410.453Z" transform="translate(-169.974 -154.02)" fill="#4e4085"/>
    <path id="Path_843" data-name="Path 843" d="M438.918,350.709c4.262-2.387,8.46-4.972,12.849-7.188,6.862-3.431,14.575-6.109,19.974-11.365a2.252,2.252,0,0,1,3.708.973,209.816,209.816,0,0,0,8.232,22.247c2.727,6.251,5.768,12.388,7.813,18.894,1.421,4.525,2.308,9.234,4.077,13.588,2.308,5.682,5.995,10.74,9.653,15.7a19.979,19.979,0,0,0,4.61,4.972c2.642,1.8,6.584,2.948,6.861,6.13-3.431,2.479-8.1,1.662-12.324,1.627a51.952,51.952,0,0,0-12.7,1.868,76.5,76.5,0,0,0-14.206,4.745,100.509,100.509,0,0,0-12.643,7.593l-37.767,25.336c-2.777-3.175-2.671-7.813-3.267-12.018a62.512,62.512,0,0,0-2.188-8.928L417.836,422.2c-1.79-6.023-3.551-12.04-5.569-18-1.662-4.972-3.509-9.994-6.762-14.1-3.921-4.972-9.561-8.2-14.455-12.2-1.733-1.421-3.445-3.04-4.091-5.185a5.071,5.071,0,0,1,.568-4.205c1.037-1.5,2.522-1.279,4.169-1.541q6.031-.959,11.962-2.422a144.894,144.894,0,0,0,22.921-7.771Q432.894,354.055,438.918,350.709Z" transform="translate(-175.254 -133.336)" fill="#bbbdc8"/>
    <path id="Path_844" data-name="Path 844" d="M443.821,359.115c3.743-2.074,7.38-4.347,11.209-6.265,5.995-3,12.714-5.327,17.424-9.894a1.96,1.96,0,0,1,3.239.845,182.538,182.538,0,0,0,7.181,19.405c2.38,5.455,5.029,10.811,6.8,16.486,1.222,3.942,2.01,8.026,3.552,11.855,2.01,4.972,5.235,9.369,8.417,13.695a17.6,17.6,0,0,0,4.02,4.333c2.316,1.57,5.753,2.571,5.988,5.356-2.99,2.131-7.06,1.421-10.747,1.421a44.419,44.419,0,0,0-11.074,1.634,66.2,66.2,0,0,0-12.38,4.141,84.781,84.781,0,0,0-11.031,6.648l-32.951,22.069c-2.422-2.77-2.323-6.84-2.841-10.491a54.569,54.569,0,0,0-1.9-7.813l-3.289-11.059c-1.563-5.256-3.125-10.505-4.858-15.7-1.421-4.34-3.054-8.715-5.9-12.3-3.424-4.326-8.339-7.146-12.615-10.654a9.8,9.8,0,0,1-3.552-4.518,4.411,4.411,0,0,1,.5-3.665c.9-1.314,2.2-1.122,3.637-1.35q5.263-.831,10.434-2.131a125.5,125.5,0,0,0,19.995-6.776Q438.579,362.006,443.821,359.115Z" transform="translate(-178.608 -136.485)" opacity="0.1"/>
    <circle id="Ellipse_35" data-name="Ellipse 35" cx="2.841" cy="2.841" r="2.841" transform="translate(248.584 245.864)" fill="#bbbdc8"/>
    <circle id="Ellipse_36" data-name="Ellipse 36" cx="2.841" cy="2.841" r="2.841" transform="translate(278.879 231.835)" fill="#bbbdc8"/>
    <circle id="Ellipse_37" data-name="Ellipse 37" cx="2.841" cy="2.841" r="2.841" transform="translate(262.911 276.805)" fill="#bbbdc8"/>
    <circle id="Ellipse_38" data-name="Ellipse 38" cx="2.841" cy="2.841" r="2.841" transform="translate(293.205 262.776)" fill="#bbbdc8"/>
    <path id="Path_845" data-name="Path 845" d="M394.678,463.9c2.841-.817,5.832-1.712,7.92-3.807,1.619-1.634,2.522-3.829,3.658-5.832,2.266-4,5.853-7.543,10.363-8.424s9.809,1.726,10.775,6.222c.625,2.926-.6,5.9-1.811,8.644-1.818,4.106-3.871,8.41-7.622,10.889-3.282,2.166-7.465,2.642-10.69,4.894-2.841,1.989-4.631,5.135-7.1,7.586a18.773,18.773,0,0,1-12.032,5.363,4.07,4.07,0,0,1-2.024-.277,4.467,4.467,0,0,1-1.534-1.513c-2.088-2.841-4.2-5.768-5.313-9.127C375.407,466.809,386.325,466.3,394.678,463.9Z" transform="translate(-172.858 -166.401)" fill="#fbbebe"/>
    <path id="Path_846" data-name="Path 846" d="M498.924,464.276c-.959-5.725-1.087-11.969-4.624-16.571-2.962-3.843-7.884-5.789-12.729-6.116-1.421-.1-3.09.043-3.914,1.208a4.333,4.333,0,0,0-.533,2.713,32.767,32.767,0,0,0,7.714,19.8c1.769,2.074,3.821,3.964,5.057,6.393,1.08,2.1,1.477,4.489,2.479,6.62,1.307,2.777,3.552,4.972,5.27,7.529a21.657,21.657,0,0,1,3.622,12.381c1.875-3.061,1.648-6.89,1.826-10.477.234-5.05,3.772-7.813,1.477-11.933S499.755,469.284,498.924,464.276Z" transform="translate(-201.428 -165.211)" fill="#fbbebe"/>
    <path id="Path_847" data-name="Path 847" d="M527.349,461.118c-1.8,4.688-2.721,9.7-4.837,14.256a7.958,7.958,0,0,1-2.756,3.552c-2.273,1.421-5.278.54-7.536-.874s-4.262-3.36-6.727-4.3a25.626,25.626,0,0,1-20.783,22.019c6.393,5.874,13.126,12.4,14.568,20.954a12.568,12.568,0,0,0,1.2,4.6c1.349,2.166,4.2,2.877,6.755,2.841,6.5-.05,12.459-3.481,17.885-7.1a16.687,16.687,0,0,0,4.908-4.319,17.9,17.9,0,0,0,2.209-6.329q4.709-22.382,9.411-44.785c.852-4.056.71-12.025-5.583-11.223C531.8,451.032,528.671,457.688,527.349,461.118Z" transform="translate(-203.636 -167.757)" opacity="0.1"/>
    <path id="Path_848" data-name="Path 848" d="M529.349,461.118c-1.8,4.688-2.72,9.7-4.837,14.256a7.956,7.956,0,0,1-2.756,3.552c-2.273,1.421-5.278.54-7.536-.874s-4.262-3.36-6.727-4.3a25.626,25.626,0,0,1-20.783,22.019c6.393,5.874,13.126,12.4,14.568,20.954a12.571,12.571,0,0,0,1.2,4.6c1.35,2.166,4.2,2.877,6.755,2.841,6.5-.05,12.459-3.481,17.885-7.1a16.686,16.686,0,0,0,4.908-4.319,17.9,17.9,0,0,0,2.209-6.329q4.709-22.382,9.411-44.785c.852-4.056.71-12.025-5.583-11.223C533.8,451.032,530.671,457.688,529.349,461.118Z" transform="translate(-204.216 -167.757)" fill="#4e4085"/>
    <path id="Path_849" data-name="Path 849" d="M392.751,494.951c-.256,1.3-1.541,2.088-2.706,2.713-2.252,1.215-4.7,2.472-7.238,2.131s-4.66-2.216-6.322-4.2a16.211,16.211,0,0,1-2.131-3.1c-2.564-5.065-2.841-26.615,7.756-19.583,4.376,2.912,1.911,7.884,2.458,12.167a12.444,12.444,0,0,0,2.905,6.89C387.793,492.337,392.588,495.789,392.751,494.951Z" transform="translate(-171.237 -173.887)" fill="#4e4085"/>
    <ellipse id="Ellipse_39" data-name="Ellipse 39" cx="31" cy="15" rx="31" ry="15" transform="translate(281 160.348)" fill="#2f2e41"/>
    <path id="Path_850" data-name="Path 850" d="M517.041,307.619c-17.1,0-31.019-6.393-31.58-14.419a8.054,8.054,0,0,0-1.421,4.475c0,8.24,14.149,14.916,31.608,14.916s31.608-6.677,31.608-14.916v-.5C543.173,303.229,531.2,307.619,517.041,307.619Z" transform="translate(-203.442 -122.23)" opacity="0.1"/>
    <ellipse id="Ellipse_40" data-name="Ellipse 40" cx="78.5" cy="70.5" rx="78.5" ry="70.5" transform="translate(372 149.348)" fill="#2f2e41"/>
    <path id="Path_851" data-name="Path 851" d="M692.133,411.441c-39.571,0-72.273-26.75-77.423-61.441a65.807,65.807,0,0,0-.71,9.589c0,39.23,34.982,71.03,78.133,71.03s78.133-31.8,78.133-71.03a65.79,65.79,0,0,0-.71-9.589C764.406,384.691,731.7,411.441,692.133,411.441Z" transform="translate(-241.092 -138.685)" opacity="0.1"/>
    <ellipse id="Ellipse_41" data-name="Ellipse 41" cx="37.5" cy="50.5" rx="37.5" ry="50.5" transform="translate(412 172.348)" fill="#2f2e41"/>
    <ellipse id="Ellipse_42" data-name="Ellipse 42" cx="37.5" cy="50.5" rx="37.5" ry="50.5" transform="translate(412 172.348)" opacity="0.1"/>
    <path id="Path_852" data-name="Path 852" d="M694.154,390.7c-1.421,3.509-4.262,7.238-8.524,7.508,5.682,4.667,11.436,9.383,18.226,12.785s14.831,5.4,22.559,4.177c5.455-.859,10.413-3.253,15.044-5.874,7.884-4.461,15.627-10.321,17.623-18.262a128.828,128.828,0,0,1-17.758-.334,24.382,24.382,0,0,1-8.85-2,13.8,13.8,0,0,1-6.8-8.311,28.893,28.893,0,0,1-.845-10.356c.107-2.024.185-4.262-1.371-5.81s-4.127-1.755-6.464-1.8a88.827,88.827,0,0,0-14.057.831,48.313,48.313,0,0,0-7.238,1.314c-3.083.938-2.791.575-2.046,3.154C695.972,375.61,697.385,382.713,694.154,390.7Z" transform="translate(-261.843 -142.276)" fill="#a0616a"/>
    <path id="Path_853" data-name="Path 853" d="M694.154,390.7c-1.421,3.509-4.262,7.238-8.524,7.508,5.682,4.667,11.436,9.383,18.226,12.785s14.831,5.4,22.559,4.177c5.455-.859,10.413-3.253,15.044-5.874,7.884-4.461,15.627-10.321,17.623-18.262a128.828,128.828,0,0,1-17.758-.334,24.382,24.382,0,0,1-8.85-2,13.8,13.8,0,0,1-6.8-8.311,28.893,28.893,0,0,1-.845-10.356c.107-2.024.185-4.262-1.371-5.81s-4.127-1.755-6.464-1.8a88.827,88.827,0,0,0-14.057.831,48.313,48.313,0,0,0-7.238,1.314c-3.083.938-2.791.575-2.046,3.154C695.972,375.61,697.385,382.713,694.154,390.7Z" transform="translate(-261.843 -142.276)" opacity="0.1"/>
    <circle id="Ellipse_43" data-name="Ellipse 43" cx="33.384" cy="33.384" r="33.384" transform="translate(415.171 174.379)" fill="#a0616a"/>
    <path id="Path_854" data-name="Path 854" d="M676.575,402.186c-2.181-2.614-4.425-5.285-7.33-7.06-4.759-2.919-10.654-3.1-16.23-3.2-6.045-.107-12.615-.05-17.4,3.651a27.576,27.576,0,0,0-5.32,6.2L610.048,430.9c-.788,1.136-1.62,2.422-1.421,3.793a5.57,5.57,0,0,0,1.421,2.621L624.525,455.4l7.8,9.738a13.209,13.209,0,0,1,3.012,5.242,11.271,11.271,0,0,1-.781,6.009c-2.692,7.664-7.813,14.916-7.344,22.992.334,5.27,3.09,10.115,6.464,14.206,7.742,9.326,18.887,15.392,30.543,18.7s23.895,4.034,36.019,4.113c22.858.149,46.88-2.344,65.76-15.236l-14.838-13.979c-2.934-2.77-6.009-5.753-7.025-9.66-.71-2.628-.369-5.4-.05-8.09.6-4.922,1.193-9.88,2.784-14.568,4.425-13.062,15.8-22.36,23.383-33.874a8.088,8.088,0,0,0,1.769-4.78,8.553,8.553,0,0,0-1.683-3.978c-3.466-5.377-7.06-10.726-9.575-16.607-1.875-4.375-3.147-9.028-5.469-13.183s-6.009-7.891-10.655-8.765c-5.981-1.122-11.812,2.621-17.885,2.877-4.446.192-9.085-1.477-13.24.107-4.929,1.882-7.1,7.437-9.866,11.947-2.039,3.36-8.119,12.551-12.885,10.292-2.593-1.236-4.972-5.682-6.833-7.863Z" transform="translate(-239.527 -150.825)" fill="#4e4085"/>
    <path id="Path_855" data-name="Path 855" d="M737.019,437.869a5.725,5.725,0,0,0-3.708-.668,2.905,2.905,0,0,0-2.351,2.656l-2.053-.121a2.294,2.294,0,0,0-.71.035,1.145,1.145,0,0,0,.483,2.238,6.846,6.846,0,0,0-2.621,1.847,3.672,3.672,0,0,0,.995,5.072,3.978,3.978,0,0,0,5.157-1.051,1.868,1.868,0,0,0,.995,2.195c3.85,2.081,5.81-.746,6.336-4.02C740.137,442.457,740.9,439.787,737.019,437.869Z" transform="translate(-273.377 -163.927)" fill="#ffe9b3"/>
    <path id="Path_856" data-name="Path 856" d="M737.019,437.869a5.725,5.725,0,0,0-3.708-.668,2.905,2.905,0,0,0-2.351,2.656l-2.053-.121a2.294,2.294,0,0,0-.71.035,1.145,1.145,0,0,0,.483,2.238,6.846,6.846,0,0,0-2.621,1.847,3.672,3.672,0,0,0,.995,5.072,3.978,3.978,0,0,0,5.157-1.051,1.868,1.868,0,0,0,.995,2.195c3.85,2.081,5.81-.746,6.336-4.02C740.137,442.457,740.9,439.787,737.019,437.869Z" transform="translate(-273.377 -163.927)" opacity="0.15"/>
    <path id="Path_857" data-name="Path 857" d="M751.8,434.47a5.682,5.682,0,0,0-3.708-.661,2.884,2.884,0,0,0-2.344,2.649l-2.053-.121a2.346,2.346,0,0,0-.71.036,1.179,1.179,0,0,0-.8,1.357,1.165,1.165,0,0,0,1.328.845,6.9,6.9,0,0,0-2.621,1.847,3.68,3.68,0,0,0,.994,5.072,3.985,3.985,0,0,0,5.164-1.044,1.861,1.861,0,0,0,.987,2.188c3.857,2.088,5.81-.71,6.343-4.013C754.926,439.059,755.707,436.388,751.8,434.47Z" transform="translate(-277.674 -162.943)" fill="#ffe9b3"/>
    <path id="Path_858" data-name="Path 858" d="M763.839,436.191a5.682,5.682,0,0,0-3.7-.661,2.884,2.884,0,0,0-2.351,2.649l-2.053-.121a2.287,2.287,0,0,0-.71.036,1.179,1.179,0,0,0-.8,1.357,1.165,1.165,0,0,0,1.328.845,6.791,6.791,0,0,0-2.621,1.847,3.672,3.672,0,0,0,.994,5.072,3.971,3.971,0,0,0,5.157-1.044,1.861,1.861,0,0,0,.994,2.188c3.85,2.088,5.8-.746,6.336-4.013C766.965,440.815,767.718,438.109,763.839,436.191Z" transform="translate(-281.161 -163.442)" fill="#ffe9b3"/>
    <path id="Path_859" data-name="Path 859" d="M763.839,436.191a5.682,5.682,0,0,0-3.7-.661,2.884,2.884,0,0,0-2.351,2.649l-2.053-.121a2.287,2.287,0,0,0-.71.036,1.179,1.179,0,0,0-.8,1.357,1.165,1.165,0,0,0,1.328.845,6.791,6.791,0,0,0-2.621,1.847,3.672,3.672,0,0,0,.994,5.072,3.971,3.971,0,0,0,5.157-1.044,1.861,1.861,0,0,0,.994,2.188c3.85,2.088,5.8-.746,6.336-4.013C766.965,440.815,767.718,438.109,763.839,436.191Z" transform="translate(-281.161 -163.442)" opacity="0.15"/>
    <path id="Path_860" data-name="Path 860" d="M772.217,442.751v76.3a1.84,1.84,0,0,1-1.833,1.833H710.833A1.84,1.84,0,0,1,709,519.052v-76.3a1.833,1.833,0,0,1,2.564-1.683q2.273.98,4.539,1.811,3.2,1.172,6.393,2.039t6.393,1.421c2.131.369,4.262.654,6.393.824s4.262.242,6.393.2,4.262-.163,6.393-.4,4.262-.582,6.393-1.03,4.262-.973,6.393-1.62c1.655-.5,3.317-1.065,4.972-1.69,1.279-.476,2.55-.994,3.829-1.548a1.833,1.833,0,0,1,2.564,1.676Z" transform="translate(-268.613 -165.023)" fill="#bbbdc8"/>
    <path id="Path_861" data-name="Path 861" d="M725.393,445.719v76H719V443.68Q722.2,444.852,725.393,445.719Z" transform="translate(-271.51 -165.824)" fill="#fff"/>
    <path id="Path_862" data-name="Path 862" d="M743.393,449.352v73.729H737V448.5A57.956,57.956,0,0,0,743.393,449.352Z" transform="translate(-276.724 -167.22)" fill="#fff"/>
    <path id="Path_863" data-name="Path 863" d="M761.393,449.42v73.928H755V449.832Q758.2,449.775,761.393,449.42Z" transform="translate(-281.939 -167.487)" fill="#fff"/>
    <path id="Path_864" data-name="Path 864" d="M779.393,445.69v76.578H773V447.331Q776.2,446.663,779.393,445.69Z" transform="translate(-287.154 -166.406)" fill="#fff"/>
    <path id="Path_865" data-name="Path 865" d="M795.393,442.751v76.3a1.84,1.84,0,0,1-1.833,1.833H789V442.616c1.279-.476,2.55-.994,3.828-1.548a1.833,1.833,0,0,1,2.564,1.683Z" transform="translate(-291.789 -165.023)" opacity="0.1"/>
    <path id="Path_866" data-name="Path 866" d="M727.709,432.751a5.683,5.683,0,0,0-3.7-.661,2.884,2.884,0,0,0-2.351,2.649l-2.053-.121a2.287,2.287,0,0,0-.71.036,1.179,1.179,0,0,0-.8,1.357,1.165,1.165,0,0,0,1.328.845A6.789,6.789,0,0,0,716.8,438.7a3.672,3.672,0,0,0,.994,5.072,3.978,3.978,0,0,0,5.157-1.044,1.861,1.861,0,0,0,.995,2.188c3.85,2.081,5.8-.746,6.336-4.013C730.835,437.339,731.6,434.669,727.709,432.751Z" transform="translate(-270.694 -162.445)" fill="#ffe9b3"/>
    <path id="Path_867" data-name="Path 867" d="M742.709,415.751a5.683,5.683,0,0,0-3.7-.661,2.884,2.884,0,0,0-2.351,2.649l-2.053-.121a2.286,2.286,0,0,0-.71.035,1.179,1.179,0,0,0-.8,1.357,1.165,1.165,0,0,0,1.328.845A6.791,6.791,0,0,0,731.8,421.7a3.672,3.672,0,0,0,.995,5.071,3.978,3.978,0,0,0,5.157-1.044,1.861,1.861,0,0,0,.995,2.188c3.85,2.081,5.8-.746,6.336-4.013C745.835,420.339,746.6,417.669,742.709,415.751Z" transform="translate(-275.04 -157.521)" fill="#ffe9b3"/>
    <path id="Path_868" data-name="Path 868" d="M752.525,433.857a5.682,5.682,0,0,0,1.371-3.509,2.884,2.884,0,0,0-2.131-2.841l.519-1.989a2.134,2.134,0,0,0,.107-.71,1.13,1.13,0,0,0-2.259.085,6.8,6.8,0,0,0-1.3-2.926,3.679,3.679,0,0,0-5.171,0,3.978,3.978,0,0,0,0,5.263,1.868,1.868,0,0,0-2.344.554c-2.792,3.367-.4,5.839,2.706,7C747.418,436.031,749.89,437.31,752.525,433.857Z" transform="translate(-277.617 -159.226)" fill="#ffe9b3"/>
    <path id="Path_869" data-name="Path 869" d="M765.525,433.857a5.682,5.682,0,0,0,1.371-3.509,2.884,2.884,0,0,0-2.131-2.841l.519-1.989a2.131,2.131,0,0,0,.107-.71,1.13,1.13,0,1,0-2.259.085,6.8,6.8,0,0,0-1.3-2.926,3.679,3.679,0,0,0-5.171,0,3.978,3.978,0,0,0,0,5.263,1.868,1.868,0,0,0-2.344.554c-2.792,3.367-.4,5.839,2.706,7C760.418,436.031,762.89,437.31,765.525,433.857Z" transform="translate(-281.383 -159.226)" fill="#ffe9b3"/>
    <path id="Path_870" data-name="Path 870" d="M773.511,442.954a5.683,5.683,0,0,0,.71-3.7,2.891,2.891,0,0,0-2.628-2.38l.149-2.046a2.349,2.349,0,0,0,0-.71,1.129,1.129,0,0,0-2.2.5,6.911,6.911,0,0,0-1.818-2.642,3.679,3.679,0,0,0-5.086.938,3.978,3.978,0,0,0,.994,5.171,1.868,1.868,0,0,0-2.2.973c-2.131,3.828.71,5.817,3.949,6.393C768.894,446.016,771.565,446.819,773.511,442.954Z" transform="translate(-283.588 -162.25)" fill="#ffe9b3"/>
    <path id="Path_871" data-name="Path 871" d="M733.511,426.954a5.683,5.683,0,0,0,.71-3.7,2.891,2.891,0,0,0-2.628-2.379l.149-2.046a2.344,2.344,0,0,0,0-.71,1.129,1.129,0,1,0-2.2.5,6.911,6.911,0,0,0-1.818-2.642,3.679,3.679,0,0,0-5.086.938,3.978,3.978,0,0,0,.994,5.171,1.868,1.868,0,0,0-2.2.973c-2.131,3.829.71,5.817,3.949,6.393C728.894,430.016,731.565,430.819,733.511,426.954Z" transform="translate(-272 -157.615)" fill="#ffe9b3"/>
    <path id="Path_872" data-name="Path 872" d="M738.019,425.869a5.725,5.725,0,0,0-3.708-.668,2.905,2.905,0,0,0-2.351,2.656l-2.053-.121a2.292,2.292,0,0,0-.71.036,1.144,1.144,0,0,0,.483,2.237,6.848,6.848,0,0,0-2.621,1.847,3.672,3.672,0,0,0,.995,5.072,3.978,3.978,0,0,0,5.157-1.051,1.868,1.868,0,0,0,.995,2.195c3.85,2.081,5.81-.746,6.336-4.02C741.137,430.457,741.9,427.787,738.019,425.869Z" transform="translate(-273.666 -160.45)" fill="#ffe9b3"/>
    <path id="Path_873" data-name="Path 873" d="M738.019,425.869a5.725,5.725,0,0,0-3.708-.668,2.905,2.905,0,0,0-2.351,2.656l-2.053-.121a2.292,2.292,0,0,0-.71.036,1.144,1.144,0,0,0,.483,2.237,6.848,6.848,0,0,0-2.621,1.847,3.672,3.672,0,0,0,.995,5.072,3.978,3.978,0,0,0,5.157-1.051,1.868,1.868,0,0,0,.995,2.195c3.85,2.081,5.81-.746,6.336-4.02C741.137,430.457,741.9,427.787,738.019,425.869Z" transform="translate(-273.666 -160.45)" opacity="0.15"/>
    <path id="Path_874" data-name="Path 874" d="M781.051,429.31a5.683,5.683,0,0,0-3.708-.661,2.891,2.891,0,0,0-2.351,2.649l-2.046-.121a2.332,2.332,0,0,0-.71.035,1.179,1.179,0,0,0-.8,1.357,1.165,1.165,0,0,0,1.328.845,6.9,6.9,0,0,0-2.621,1.847,3.68,3.68,0,0,0,.995,5.072,3.978,3.978,0,0,0,5.157-1.044,1.861,1.861,0,0,0,.994,2.188c3.85,2.081,5.81-.746,6.336-4.02C784.169,433.9,784.936,431.228,781.051,429.31Z" transform="translate(-286.148 -161.448)" fill="#ffe9b3"/>
    <path id="Path_875" data-name="Path 875" d="M781.051,429.31a5.683,5.683,0,0,0-3.708-.661,2.891,2.891,0,0,0-2.351,2.649l-2.046-.121a2.332,2.332,0,0,0-.71.035,1.179,1.179,0,0,0-.8,1.357,1.165,1.165,0,0,0,1.328.845,6.9,6.9,0,0,0-2.621,1.847,3.68,3.68,0,0,0,.995,5.072,3.978,3.978,0,0,0,5.157-1.044,1.861,1.861,0,0,0,.994,2.188c3.85,2.081,5.81-.746,6.336-4.02C784.169,433.9,784.936,431.228,781.051,429.31Z" transform="translate(-286.148 -161.448)" opacity="0.15"/>
    <path id="Path_876" data-name="Path 876" d="M755.05,412.31a5.682,5.682,0,0,0-3.708-.661,2.891,2.891,0,0,0-2.351,2.649l-2.046-.121a2.33,2.33,0,0,0-.71.035,1.179,1.179,0,0,0-.8,1.357,1.165,1.165,0,0,0,1.328.845,6.9,6.9,0,0,0-2.621,1.847,3.679,3.679,0,0,0,.994,5.072,3.978,3.978,0,0,0,5.157-1.044,1.861,1.861,0,0,0,.995,2.188c3.85,2.081,5.81-.746,6.336-4.02C758.169,416.9,758.936,414.228,755.05,412.31Z" transform="translate(-278.616 -156.524)" fill="#ffe9b3"/>
    <path id="Path_877" data-name="Path 877" d="M755.05,412.31a5.682,5.682,0,0,0-3.708-.661,2.891,2.891,0,0,0-2.351,2.649l-2.046-.121a2.33,2.33,0,0,0-.71.035,1.179,1.179,0,0,0-.8,1.357,1.165,1.165,0,0,0,1.328.845,6.9,6.9,0,0,0-2.621,1.847,3.679,3.679,0,0,0,.994,5.072,3.978,3.978,0,0,0,5.157-1.044,1.861,1.861,0,0,0,.995,2.188c3.85,2.081,5.81-.746,6.336-4.02C758.169,416.9,758.936,414.228,755.05,412.31Z" transform="translate(-278.616 -156.524)" opacity="0.15"/>
    <path id="Path_878" data-name="Path 878" d="M735.051,406.31a5.683,5.683,0,0,0-3.708-.661,2.891,2.891,0,0,0-2.351,2.649l-2.046-.121a2.33,2.33,0,0,0-.71.035,1.179,1.179,0,0,0-.8,1.357,1.165,1.165,0,0,0,1.328.845,6.9,6.9,0,0,0-2.621,1.847,3.679,3.679,0,0,0,.994,5.072,3.978,3.978,0,0,0,5.157-1.044,1.861,1.861,0,0,0,.994,2.188c3.85,2.081,5.81-.746,6.336-4.02C738.169,410.9,738.936,408.228,735.051,406.31Z" transform="translate(-272.822 -154.785)" fill="#ffe9b3"/>
    <path id="Path_879" data-name="Path 879" d="M735.051,406.31a5.683,5.683,0,0,0-3.708-.661,2.891,2.891,0,0,0-2.351,2.649l-2.046-.121a2.33,2.33,0,0,0-.71.035,1.179,1.179,0,0,0-.8,1.357,1.165,1.165,0,0,0,1.328.845,6.9,6.9,0,0,0-2.621,1.847,3.679,3.679,0,0,0,.994,5.072,3.978,3.978,0,0,0,5.157-1.044,1.861,1.861,0,0,0,.994,2.188c3.85,2.081,5.81-.746,6.336-4.02C738.169,410.9,738.936,408.228,735.051,406.31Z" transform="translate(-272.822 -154.785)" opacity="0.15"/>
    <path id="Path_880" data-name="Path 880" d="M757.05,402.31a5.682,5.682,0,0,0-3.708-.661,2.891,2.891,0,0,0-2.351,2.649l-2.046-.121a2.331,2.331,0,0,0-.71.035,1.179,1.179,0,0,0-.8,1.357,1.165,1.165,0,0,0,1.328.845,6.9,6.9,0,0,0-2.621,1.847,3.68,3.68,0,0,0,.994,5.072,3.978,3.978,0,0,0,5.157-1.044,1.861,1.861,0,0,0,.994,2.188c3.85,2.081,5.81-.746,6.336-4.02C760.169,406.9,760.936,404.228,757.05,402.31Z" transform="translate(-279.195 -153.627)" fill="#ffe9b3"/>
    <path id="Path_881" data-name="Path 881" d="M757.05,402.31a5.682,5.682,0,0,0-3.708-.661,2.891,2.891,0,0,0-2.351,2.649l-2.046-.121a2.331,2.331,0,0,0-.71.035,1.179,1.179,0,0,0-.8,1.357,1.165,1.165,0,0,0,1.328.845,6.9,6.9,0,0,0-2.621,1.847,3.68,3.68,0,0,0,.994,5.072,3.978,3.978,0,0,0,5.157-1.044,1.861,1.861,0,0,0,.994,2.188c3.85,2.081,5.81-.746,6.336-4.02C760.169,406.9,760.936,404.228,757.05,402.31Z" transform="translate(-279.195 -153.627)" opacity="0.15"/>
    <path id="Path_882" data-name="Path 882" d="M765.051,408.31a5.682,5.682,0,0,0-3.708-.661,2.891,2.891,0,0,0-2.351,2.649l-2.046-.121a2.33,2.33,0,0,0-.71.035,1.179,1.179,0,0,0-.8,1.357,1.165,1.165,0,0,0,1.328.845,6.9,6.9,0,0,0-2.621,1.847,3.679,3.679,0,0,0,.994,5.072,3.978,3.978,0,0,0,5.157-1.044,1.861,1.861,0,0,0,.994,2.188c3.85,2.081,5.81-.746,6.336-4.02C768.169,412.9,768.936,410.228,765.051,408.31Z" transform="translate(-281.513 -155.365)" fill="#ffe9b3"/>
    <path id="Path_883" data-name="Path 883" d="M765.051,408.31a5.682,5.682,0,0,0-3.708-.661,2.891,2.891,0,0,0-2.351,2.649l-2.046-.121a2.33,2.33,0,0,0-.71.035,1.179,1.179,0,0,0-.8,1.357,1.165,1.165,0,0,0,1.328.845,6.9,6.9,0,0,0-2.621,1.847,3.679,3.679,0,0,0,.994,5.072,3.978,3.978,0,0,0,5.157-1.044,1.861,1.861,0,0,0,.994,2.188c3.85,2.081,5.81-.746,6.336-4.02C768.169,412.9,768.936,410.228,765.051,408.31Z" transform="translate(-281.513 -155.365)" opacity="0.15"/>
    <path id="Path_884" data-name="Path 884" d="M716.05,429.31a5.683,5.683,0,0,0-3.708-.661,2.891,2.891,0,0,0-2.351,2.649l-2.046-.121a2.332,2.332,0,0,0-.71.035,1.179,1.179,0,0,0-.8,1.357,1.165,1.165,0,0,0,1.328.845,6.9,6.9,0,0,0-2.621,1.847,3.679,3.679,0,0,0,.994,5.072,3.978,3.978,0,0,0,5.157-1.044,1.861,1.861,0,0,0,.994,2.188c3.85,2.081,5.81-.746,6.336-4.02C719.169,433.9,719.936,431.228,716.05,429.31Z" transform="translate(-267.317 -161.448)" fill="#ffe9b3"/>
    <path id="Path_885" data-name="Path 885" d="M716.05,429.31a5.683,5.683,0,0,0-3.708-.661,2.891,2.891,0,0,0-2.351,2.649l-2.046-.121a2.332,2.332,0,0,0-.71.035,1.179,1.179,0,0,0-.8,1.357,1.165,1.165,0,0,0,1.328.845,6.9,6.9,0,0,0-2.621,1.847,3.679,3.679,0,0,0,.994,5.072,3.978,3.978,0,0,0,5.157-1.044,1.861,1.861,0,0,0,.994,2.188c3.85,2.081,5.81-.746,6.336-4.02C719.169,433.9,719.936,431.228,716.05,429.31Z" transform="translate(-267.317 -161.448)" opacity="0.15"/>
    <path id="Path_886" data-name="Path 886" d="M774.051,415.31a5.683,5.683,0,0,0-3.708-.661,2.891,2.891,0,0,0-2.351,2.649l-2.046-.121a2.331,2.331,0,0,0-.71.035,1.179,1.179,0,0,0-.8,1.357,1.165,1.165,0,0,0,1.328.845,6.9,6.9,0,0,0-2.621,1.847,3.679,3.679,0,0,0,.994,5.072,3.978,3.978,0,0,0,5.157-1.044,1.861,1.861,0,0,0,.994,2.188c3.85,2.081,5.81-.746,6.336-4.02C777.169,419.9,777.936,417.228,774.051,415.31Z" transform="translate(-284.12 -157.393)" fill="#ffe9b3"/>
    <path id="Path_887" data-name="Path 887" d="M774.051,415.31a5.683,5.683,0,0,0-3.708-.661,2.891,2.891,0,0,0-2.351,2.649l-2.046-.121a2.331,2.331,0,0,0-.71.035,1.179,1.179,0,0,0-.8,1.357,1.165,1.165,0,0,0,1.328.845,6.9,6.9,0,0,0-2.621,1.847,3.679,3.679,0,0,0,.994,5.072,3.978,3.978,0,0,0,5.157-1.044,1.861,1.861,0,0,0,.994,2.188c3.85,2.081,5.81-.746,6.336-4.02C777.169,419.9,777.936,417.228,774.051,415.31Z" transform="translate(-284.12 -157.393)" opacity="0.15"/>
    <path id="Path_888" data-name="Path 888" d="M793.05,425.31a5.682,5.682,0,0,0-3.708-.661,2.891,2.891,0,0,0-2.351,2.649l-2.046-.121a2.331,2.331,0,0,0-.71.035,1.179,1.179,0,0,0-.8,1.357,1.165,1.165,0,0,0,1.328.845,6.9,6.9,0,0,0-2.621,1.847,3.679,3.679,0,0,0,.994,5.072,3.978,3.978,0,0,0,5.157-1.044,1.861,1.861,0,0,0,.994,2.188c3.85,2.081,5.81-.746,6.336-4.02C796.169,429.9,796.936,427.228,793.05,425.31Z" transform="translate(-289.624 -160.29)" fill="#ffe9b3"/>
    <path id="Path_889" data-name="Path 889" d="M793.05,425.31a5.682,5.682,0,0,0-3.708-.661,2.891,2.891,0,0,0-2.351,2.649l-2.046-.121a2.331,2.331,0,0,0-.71.035,1.179,1.179,0,0,0-.8,1.357,1.165,1.165,0,0,0,1.328.845,6.9,6.9,0,0,0-2.621,1.847,3.679,3.679,0,0,0,.994,5.072,3.978,3.978,0,0,0,5.157-1.044,1.861,1.861,0,0,0,.994,2.188c3.85,2.081,5.81-.746,6.336-4.02C796.169,429.9,796.936,427.228,793.05,425.31Z" transform="translate(-289.624 -160.29)" opacity="0.15"/>
    <path id="Path_890" data-name="Path 890" d="M777.05,403.31a5.682,5.682,0,0,0-3.708-.661,2.891,2.891,0,0,0-2.351,2.649l-2.046-.121a2.33,2.33,0,0,0-.71.036,1.179,1.179,0,0,0-.8,1.357,1.165,1.165,0,0,0,1.328.845,6.9,6.9,0,0,0-2.621,1.847,3.679,3.679,0,0,0,.994,5.072,3.978,3.978,0,0,0,5.157-1.044,1.861,1.861,0,0,0,.995,2.188c3.85,2.081,5.81-.746,6.336-4.02C780.169,407.9,780.936,405.228,777.05,403.31Z" transform="translate(-284.989 -153.916)" fill="#ffe9b3"/>
    <path id="Path_891" data-name="Path 891" d="M777.05,403.31a5.682,5.682,0,0,0-3.708-.661,2.891,2.891,0,0,0-2.351,2.649l-2.046-.121a2.33,2.33,0,0,0-.71.036,1.179,1.179,0,0,0-.8,1.357,1.165,1.165,0,0,0,1.328.845,6.9,6.9,0,0,0-2.621,1.847,3.679,3.679,0,0,0,.994,5.072,3.978,3.978,0,0,0,5.157-1.044,1.861,1.861,0,0,0,.995,2.188c3.85,2.081,5.81-.746,6.336-4.02C780.169,407.9,780.936,405.228,777.05,403.31Z" transform="translate(-284.989 -153.916)" opacity="0.15"/>
    <path id="Path_892" data-name="Path 892" d="M790.511,422.954a5.683,5.683,0,0,0,.71-3.7,2.891,2.891,0,0,0-2.628-2.38l.149-2.046a2.341,2.341,0,0,0,0-.71,1.129,1.129,0,0,0-2.2.5,6.911,6.911,0,0,0-1.818-2.642,3.679,3.679,0,0,0-5.086.938,3.978,3.978,0,0,0,.995,5.171,1.868,1.868,0,0,0-2.2.973c-2.131,3.829.71,5.817,3.949,6.393C785.894,426.016,788.565,426.819,790.511,422.954Z" transform="translate(-288.512 -156.456)" fill="#ffe9b3"/>
    <path id="Path_893" data-name="Path 893" d="M790.511,406.954a5.683,5.683,0,0,0,.71-3.7,2.891,2.891,0,0,0-2.628-2.379l.149-2.046a2.341,2.341,0,0,0,0-.71,1.129,1.129,0,1,0-2.2.5,6.91,6.91,0,0,0-1.818-2.642,3.679,3.679,0,0,0-5.086.938,3.977,3.977,0,0,0,.995,5.171,1.868,1.868,0,0,0-2.2.973c-2.131,3.829.71,5.817,3.949,6.393C785.894,410.016,788.565,410.819,790.511,406.954Z" transform="translate(-288.512 -151.821)" fill="#ffe9b3"/>
    <path id="Path_894" data-name="Path 894" d="M773.511,427.954a5.683,5.683,0,0,0,.71-3.7,2.891,2.891,0,0,0-2.628-2.38l.149-2.046a2.341,2.341,0,0,0,0-.71,1.129,1.129,0,0,0-2.2.5,6.91,6.91,0,0,0-1.818-2.642,3.679,3.679,0,0,0-5.086.938,3.978,3.978,0,0,0,.994,5.171,1.868,1.868,0,0,0-2.2.973c-2.131,3.829.71,5.817,3.949,6.393C768.894,431.016,771.565,431.819,773.511,427.954Z" transform="translate(-283.588 -157.905)" fill="#ffe9b3"/>
    <path id="Path_895" data-name="Path 895" d="M792.511,445.954a5.683,5.683,0,0,0,.71-3.7,2.891,2.891,0,0,0-2.628-2.379l.149-2.046a2.348,2.348,0,0,0,0-.71,1.129,1.129,0,1,0-2.2.5,6.912,6.912,0,0,0-1.818-2.642,3.679,3.679,0,0,0-5.086.938,3.978,3.978,0,0,0,.994,5.171,1.868,1.868,0,0,0-2.2.973c-2.131,3.828.71,5.817,3.949,6.393C787.894,449.016,790.565,449.819,792.511,445.954Z" transform="translate(-289.092 -163.119)" fill="#ffe9b3"/>
    <path id="Path_896" data-name="Path 896" d="M756.511,452.954a5.683,5.683,0,0,0,.71-3.7,2.891,2.891,0,0,0-2.628-2.38l.149-2.046a2.349,2.349,0,0,0,0-.71,1.13,1.13,0,0,0-2.2.5,6.91,6.91,0,0,0-1.818-2.642,3.679,3.679,0,0,0-5.086.938,3.978,3.978,0,0,0,.994,5.171,1.868,1.868,0,0,0-2.2.973c-2.131,3.829.71,5.817,3.949,6.393C751.894,456.016,754.565,456.819,756.511,452.954Z" transform="translate(-278.663 -165.147)" fill="#ffe9b3"/>
    <path id="Path_897" data-name="Path 897" d="M748.511,411.954a5.683,5.683,0,0,0,.71-3.7,2.891,2.891,0,0,0-2.628-2.38l.149-2.046a2.341,2.341,0,0,0,0-.71,1.129,1.129,0,1,0-2.2.5,6.912,6.912,0,0,0-1.818-2.642,3.679,3.679,0,0,0-5.086.938,3.978,3.978,0,0,0,.995,5.171,1.868,1.868,0,0,0-2.2.973c-2.131,3.828.71,5.817,3.949,6.393C743.894,415.016,746.565,415.818,748.511,411.954Z" transform="translate(-276.345 -153.27)" fill="#ffe9b3"/>
    <path id="Path_898" data-name="Path 898" d="M769.511,406.954a5.684,5.684,0,0,0,.71-3.7,2.891,2.891,0,0,0-2.628-2.379l.149-2.046a2.348,2.348,0,0,0,0-.71,1.129,1.129,0,0,0-2.2.5,6.911,6.911,0,0,0-1.818-2.642,3.679,3.679,0,0,0-5.086.938,3.978,3.978,0,0,0,.994,5.171,1.868,1.868,0,0,0-2.2.973c-2.131,3.829.71,5.817,3.949,6.393C764.894,410.016,767.565,410.819,769.511,406.954Z" transform="translate(-282.429 -151.821)" fill="#ffe9b3"/>
    <path id="Path_899" data-name="Path 899" d="M727.511,425.954a5.683,5.683,0,0,0,.71-3.7,2.891,2.891,0,0,0-2.628-2.38l.149-2.046a2.341,2.341,0,0,0,0-.71,1.129,1.129,0,0,0-2.2.5,6.912,6.912,0,0,0-1.818-2.642,3.679,3.679,0,0,0-5.086.938,3.978,3.978,0,0,0,.995,5.171,1.868,1.868,0,0,0-2.2.973c-2.131,3.828.71,5.817,3.949,6.393C722.894,429.016,725.565,429.819,727.511,425.954Z" transform="translate(-270.262 -157.326)" fill="#ffe9b3"/>
    <path id="Path_900" data-name="Path 900" d="M702.883,475.88c3.694-.3,7.337-1.243,11.045-1.193,4.851.064,9.518,1.818,13.936,3.821a10.988,10.988,0,0,1,3.509,2.188,7.408,7.408,0,0,1,1.691,6.194,16.037,16.037,0,0,1-2.543,6.094c-1.293,2.053-2.891,4.077-5.143,4.972a12.346,12.346,0,0,1-3.914.675,44.013,44.013,0,0,1-16.507-1.783c-2.706-.923-5.27-2.216-7.92-3.31-8.446-3.495-17.58-4.873-26.551-6.634a2.728,2.728,0,0,1-1.264-.49c-1.868-1.612,2.188-7.423,3.139-9.049,1.605-2.763,3.061-3.061,6.315-3.14C686.8,474.019,694.736,476.384,702.883,475.88Z" transform="translate(-256.948 -174.669)" fill="#a0616a"/>
    <path id="Path_901" data-name="Path 901" d="M795.068,501.337c-2.571-1.264-4.88-3.012-7.43-4.326a25.046,25.046,0,0,0-10.349-2.749c-2.337-.107-4.88.206-6.577,1.818-2.422,2.3-2.131,6.215-1.335,9.461,1.208,4.866,3.637,10.015,8.3,11.855a18.886,18.886,0,0,0,5.682.973c8.644.6,17.644,1.136,25.656-2.131a2.6,2.6,0,0,0,1.421-1.087,2.686,2.686,0,0,0-.355-2.28c-1.279-2.571-3.3-7.962-5.775-9.568C802.008,501.763,797.938,502.743,795.068,501.337Z" transform="translate(-285.938 -180.472)" fill="#a0616a"/>
    <path id="Path_902" data-name="Path 902" d="M821.523,448.979a120.81,120.81,0,0,1,11.606,23.887,19.746,19.746,0,0,1,1.421,6.457,20.234,20.234,0,0,1-1.762,7.181,192.494,192.494,0,0,1-9.987,21.764c-1.136,2.131-2.436,4.354-4.688,5.526-2.365,1.236-5.278,1.044-7.984.71A154.24,154.24,0,0,1,790,510.938c4.169.135,7.934-2.99,9.859-6.393s2.351-7.295,2.671-11.095a16.844,16.844,0,0,0-.255-6.144,6.677,6.677,0,0,0-4.134-4.581c-.192-1.854,1.577-3.409,3.4-4.262s3.9-1.328,5.384-2.607c2.188-1.875,2.5-5.008,1.783-7.664s-2.28-5.057-3.388-7.607c-1.556-3.552,6.471-7.288,6.79-11.123.071-.867-.54.71,0,0s3.892,1.754,4.652,1.421C821.758,448.723,818.76,444.589,821.523,448.979Z" transform="translate(-292.079 -166.797)" opacity="0.1"/>
    <path id="Path_903" data-name="Path 903" d="M823.706,447.892a121.231,121.231,0,0,1,11.613,23.887,19.555,19.555,0,0,1,1.421,6.457,20.377,20.377,0,0,1-1.755,7.181A193.749,193.749,0,0,1,825,507.181c-1.136,2.131-2.436,4.354-4.688,5.526-2.365,1.236-5.285,1.044-7.984.71a153.824,153.824,0,0,1-20.137-3.566c4.162.135,7.934-2.99,9.852-6.393s2.358-7.295,2.678-11.095a17,17,0,0,0-.256-6.144,6.706,6.706,0,0,0-4.134-4.581c-.2-1.854,1.577-3.409,3.4-4.262s3.9-1.328,5.384-2.607c2.181-1.875,2.493-5.008,1.776-7.664s-2.28-5.057-3.388-7.607a23.588,23.588,0,0,1-1.889-11.308,4.771,4.771,0,0,1,.753-2.493,4.873,4.873,0,0,1,1.982-1.421C813.364,442.145,820.943,443.5,823.706,447.892Z" transform="translate(-292.713 -165.71)" fill="#4e4085"/>
    <path id="Path_904" data-name="Path 904" d="M617.006,438.653c-4.61,4.262-9.369,8.765-11.613,14.639a41.578,41.578,0,0,0-2.024,10.065c-.668,5.81-1.271,12.033,1.421,17.218,2.983,5.682,9.234,8.73,15.1,11.308a41.906,41.906,0,0,0,6.286,2.358,44.168,44.168,0,0,0,8.595,1.051l29.612,1.648a20.356,20.356,0,0,1-5.81-15.449c.476-4.88,2.841-9.355,5.221-13.624,1.236-2.2,2.635-4.518,4.915-5.6a95.556,95.556,0,0,0-29.406-1.847,2.071,2.071,0,0,1-1.854-.447,1.775,1.775,0,0,1-.284-1.115c0-4.411,3.3-8.076,4.66-12.267,2.181-6.719-5.242-3.033-11.919-5.341S618.369,431.72,617.006,438.653Z" transform="translate(-237.847 -163.517)" opacity="0.1"/>
    <path id="Path_905" data-name="Path 905" d="M614.006,435.81c-4.61,4.262-9.369,8.765-11.613,14.639a41.576,41.576,0,0,0-2.024,10.065c-.668,5.81-1.271,12.032,1.421,17.218,2.983,5.682,9.234,8.73,15.1,11.308a41.908,41.908,0,0,0,6.286,2.358,44.163,44.163,0,0,0,8.595,1.051l29.613,1.648a20.356,20.356,0,0,1-5.81-15.449c.476-4.88,2.841-9.355,5.221-13.624,1.236-2.2,2.635-4.518,4.915-5.6a95.557,95.557,0,0,0-29.406-1.847,2.071,2.071,0,0,1-1.854-.447,1.777,1.777,0,0,1-.284-1.115c0-4.411,3.3-8.076,4.66-12.267,2.181-6.719-1.612-14.916-8.3-17.239S615.37,428.878,614.006,435.81Z" transform="translate(-236.978 -160.675)" fill="#4e4085"/>
    <ellipse id="Ellipse_44" data-name="Ellipse 44" cx="36" cy="14.5" rx="36" ry="14.5" transform="translate(415 169.348)" fill="#2f2e41"/>
    <path id="Path_906" data-name="Path 906" d="M708.87,318.72c-17.168,0-31.516-5.022-35.039-11.72a6.825,6.825,0,0,0-.831,3.2c0,8.24,16.06,14.916,35.87,14.916s35.87-6.677,35.87-14.916a6.825,6.825,0,0,0-.831-3.2C740.386,313.7,726.038,318.72,708.87,318.72Z" transform="translate(-258.184 -126.228)" opacity="0.1"/>
    <path id="Path_907" data-name="Path 907" d="M787.051,325.31a5.683,5.683,0,0,0-3.708-.661,2.891,2.891,0,0,0-2.351,2.649l-2.046-.121a2.331,2.331,0,0,0-.71.035,1.179,1.179,0,0,0-.8,1.357,1.165,1.165,0,0,0,1.328.845,6.9,6.9,0,0,0-2.621,1.847,3.679,3.679,0,0,0,.995,5.072,3.978,3.978,0,0,0,5.157-1.044,1.861,1.861,0,0,0,.994,2.188c3.85,2.081,5.81-.746,6.336-4.02C790.169,329.9,790.936,327.228,787.051,325.31Z" transform="translate(-287.886 -131.32)" fill="#ffe9b3"/>
    <path id="Path_908" data-name="Path 908" d="M787.051,325.31a5.683,5.683,0,0,0-3.708-.661,2.891,2.891,0,0,0-2.351,2.649l-2.046-.121a2.331,2.331,0,0,0-.71.035,1.179,1.179,0,0,0-.8,1.357,1.165,1.165,0,0,0,1.328.845,6.9,6.9,0,0,0-2.621,1.847,3.679,3.679,0,0,0,.995,5.072,3.978,3.978,0,0,0,5.157-1.044,1.861,1.861,0,0,0,.994,2.188c3.85,2.081,5.81-.746,6.336-4.02C790.169,329.9,790.936,327.228,787.051,325.31Z" transform="translate(-287.886 -131.32)" opacity="0.15"/>
    <path id="Path_909" data-name="Path 909" d="M835.05,401.31a5.682,5.682,0,0,0-3.708-.661,2.891,2.891,0,0,0-2.351,2.649l-2.046-.121a2.33,2.33,0,0,0-.71.036,1.179,1.179,0,0,0-.8,1.357,1.165,1.165,0,0,0,1.328.845,6.9,6.9,0,0,0-2.621,1.847,3.679,3.679,0,0,0,.994,5.072,3.978,3.978,0,0,0,5.157-1.044,1.861,1.861,0,0,0,.994,2.188c3.85,2.081,5.81-.746,6.336-4.02C838.169,405.9,838.936,403.228,835.05,401.31Z" transform="translate(-301.792 -153.337)" fill="#ffe9b3"/>
    <path id="Path_910" data-name="Path 910" d="M835.05,401.31a5.682,5.682,0,0,0-3.708-.661,2.891,2.891,0,0,0-2.351,2.649l-2.046-.121a2.33,2.33,0,0,0-.71.036,1.179,1.179,0,0,0-.8,1.357,1.165,1.165,0,0,0,1.328.845,6.9,6.9,0,0,0-2.621,1.847,3.679,3.679,0,0,0,.994,5.072,3.978,3.978,0,0,0,5.157-1.044,1.861,1.861,0,0,0,.994,2.188c3.85,2.081,5.81-.746,6.336-4.02C838.169,405.9,838.936,403.228,835.05,401.31Z" transform="translate(-301.792 -153.337)" opacity="0.15"/>
    <path id="Path_911" data-name="Path 911" d="M891.051,482.31a5.683,5.683,0,0,0-3.708-.661,2.891,2.891,0,0,0-2.351,2.649l-2.046-.121a2.33,2.33,0,0,0-.71.036,1.179,1.179,0,0,0-.8,1.357,1.165,1.165,0,0,0,1.328.845,6.9,6.9,0,0,0-2.621,1.847,3.679,3.679,0,0,0,.994,5.072,3.978,3.978,0,0,0,5.157-1.044,1.861,1.861,0,0,0,.995,2.188c3.85,2.081,5.81-.746,6.336-4.02C894.169,486.9,894.936,484.228,891.051,482.31Z" transform="translate(-318.015 -176.803)" fill="#ffe9b3"/>
    <path id="Path_912" data-name="Path 912" d="M891.051,482.31a5.683,5.683,0,0,0-3.708-.661,2.891,2.891,0,0,0-2.351,2.649l-2.046-.121a2.33,2.33,0,0,0-.71.036,1.179,1.179,0,0,0-.8,1.357,1.165,1.165,0,0,0,1.328.845,6.9,6.9,0,0,0-2.621,1.847,3.679,3.679,0,0,0,.994,5.072,3.978,3.978,0,0,0,5.157-1.044,1.861,1.861,0,0,0,.995,2.188c3.85,2.081,5.81-.746,6.336-4.02C894.169,486.9,894.936,484.228,891.051,482.31Z" transform="translate(-318.015 -176.803)" opacity="0.15"/>
    <path id="Path_913" data-name="Path 913" d="M804.511,298.954a5.683,5.683,0,0,0,.71-3.7,2.891,2.891,0,0,0-2.628-2.379l.149-2.046a2.348,2.348,0,0,0,0-.71,1.129,1.129,0,1,0-2.2.5,6.911,6.911,0,0,0-1.818-2.642,3.679,3.679,0,0,0-5.086.938,3.978,3.978,0,0,0,.995,5.171,1.868,1.868,0,0,0-2.2.973c-2.131,3.829.71,5.817,3.949,6.393C799.894,302.016,802.565,302.819,804.511,298.954Z" transform="translate(-292.568 -120.534)" fill="#ffe9b3"/>
    <path id="Path_914" data-name="Path 914" d="M798.511,263.954a5.683,5.683,0,0,0,.71-3.7,2.891,2.891,0,0,0-2.628-2.38l.149-2.046a2.341,2.341,0,0,0,0-.71,1.129,1.129,0,0,0-2.2.5,6.911,6.911,0,0,0-1.818-2.642,3.679,3.679,0,0,0-5.086.938,3.978,3.978,0,0,0,.994,5.171,1.868,1.868,0,0,0-2.2.973c-2.131,3.829.71,5.817,3.949,6.393C793.894,267.016,796.565,267.819,798.511,263.954Z" transform="translate(-290.83 -110.394)" fill="#ffe9b3"/>
    <path id="Path_915" data-name="Path 915" d="M649.051,556.31a5.683,5.683,0,0,0-3.708-.661,2.891,2.891,0,0,0-2.351,2.649l-2.046-.121a2.333,2.333,0,0,0-.71,0,1.179,1.179,0,0,0-.8,1.357,1.165,1.165,0,0,0,1.328.845,6.9,6.9,0,0,0-2.621,1.847,3.68,3.68,0,0,0,.994,5.072,3.978,3.978,0,0,0,5.157-1.044,1.861,1.861,0,0,0,.994,2.188c3.85,2.081,5.81-.71,6.336-4.02C652.169,560.9,652.936,558.228,649.051,556.31Z" transform="translate(-247.908 -198.24)" fill="#ffe9b3"/>
    <path id="Path_916" data-name="Path 916" d="M649.051,556.31a5.683,5.683,0,0,0-3.708-.661,2.891,2.891,0,0,0-2.351,2.649l-2.046-.121a2.333,2.333,0,0,0-.71,0,1.179,1.179,0,0,0-.8,1.357,1.165,1.165,0,0,0,1.328.845,6.9,6.9,0,0,0-2.621,1.847,3.68,3.68,0,0,0,.994,5.072,3.978,3.978,0,0,0,5.157-1.044,1.861,1.861,0,0,0,.994,2.188c3.85,2.081,5.81-.71,6.336-4.02C652.169,560.9,652.936,558.228,649.051,556.31Z" transform="translate(-247.908 -198.24)" opacity="0.15"/>
    <path id="Path_917" data-name="Path 917" d="M612.511,549.955a5.683,5.683,0,0,0,.71-3.7,2.891,2.891,0,0,0-2.628-2.38l.149-2.046a2.344,2.344,0,0,0,0-.71,1.129,1.129,0,1,0-2.2.5,6.91,6.91,0,0,0-1.818-2.642,3.679,3.679,0,0,0-5.086.938,3.978,3.978,0,0,0,.994,5.171,1.868,1.868,0,0,0-2.2.973c-2.131,3.829.71,5.817,3.949,6.393C607.894,553.016,610.565,553.818,612.511,549.955Z" transform="translate(-236.946 -193.248)" fill="#ffe9b3"/>
    <path id="Path_918" data-name="Path 918" d="M660.511,494.954a5.683,5.683,0,0,0,.71-3.7,2.891,2.891,0,0,0-2.628-2.38l.149-2.046a2.344,2.344,0,0,0,0-.71,1.129,1.129,0,0,0-2.2.5,6.911,6.911,0,0,0-1.818-2.642,3.679,3.679,0,0,0-5.086.938,3.978,3.978,0,0,0,.994,5.171,1.868,1.868,0,0,0-2.2.973c-2.131,3.828.71,5.817,3.949,6.393C655.894,498.016,658.565,498.819,660.511,494.954Z" transform="translate(-250.852 -177.315)" fill="#ffe9b3"/>
    <path id="Path_919" data-name="Path 919" d="M501.481,510.727c-6.918-1.769-14.121-3.552-21.11-2.131a89.5,89.5,0,0,0-9.078,2.841,51.931,51.931,0,0,1-44.564-6.655c-7.245-5.008-14.774-12.31-23.355-10.328-2.308.54-4.446,1.747-6.8,2.01-4.425.5-8.524-2.365-12.913-3.04-7.558-1.158-14.426,4.141-20.236,9.113l-30.635,26.217c-2.323,1.989-4.88,4.617-4.262,7.6.945,4.383,7.657,4.972,9.383,9.127,1.25,2.976-.817,6.442-3.551,8.14s-6.045,2.131-9.113,3.161a28.341,28.341,0,0,0-18.667,20.741c-.54,2.543-.71,5.185-1.712,7.586-1.08,2.614-3.033,4.759-4.475,7.188-6.307,10.583-2.166,24.626-6.954,35.977-2.536,6.023-7.614,11.848-6.009,18.177,1.463,5.739,7.764,8.673,13.5,10.193.675,3.907-.71,6.663-3.552,9.468,23.831,9.795,49.409,19.8,74.688,14.788,8.673-1.712,17.118-5.185,25.954-5.043,6.272.1,12.473,2.031,18.731,1.591,13.2-.93,25.329-12.217,38.122-8.829-3.857.263-5.285,5.9-3.012,9.035s6.457,4.134,10.307,4.5,7.927.4,11.265,2.358c-2.529,5.263-11.585,7.1-10.711,12.892.32,2.088,2.01,3.672,3.686,4.972,17.225,13.19,40.949,11.926,62.507,14.206,15.9,1.662,31.481,5.547,47.327,7.621,25.315,3.3,50.978,1.953,76.464.59,4.624-.249,9.809-.76,12.785-4.312,3.949-4.731,1.754-11.741,1.257-17.878-1.932-24.015,24.335-40.544,31.694-63.487,2.841-8.957,2.721-18.582,2.209-27.979-1.143-21.2-4.461-43.556-17.971-59.921-11.123-13.5-27.751-21.1-44.309-26.665-10.541-3.552-21.586-6.471-32.674-5.427-18.61,1.754-37.412,14.462-54.594,7.1-4.546-1.946-8.417-5.164-12.736-7.565C527.009,512.254,514.132,513.959,501.481,510.727Z" transform="translate(-146.394 -180.188)" fill="#3a1270"/>
    <g id="Group_89" data-name="Group 89" transform="translate(140.78 332.229)" opacity="0.1">
      <path id="Path_920" data-name="Path 920" d="M597.608,731.2c-15.847-2.074-31.4-5.938-47.327-7.622-21.579-2.259-45.3-.994-62.507-14.206-1.676-1.286-3.367-2.841-3.686-4.972-.874-5.775,8.183-7.629,10.711-12.892-3.338-1.96-7.409-1.982-11.265-2.358s-8.034-1.371-10.306-4.5-.845-8.772,3.012-9.035c-12.785-3.388-24.917,7.9-38.122,8.829-6.258.44-12.459-1.492-18.731-1.591-8.836-.142-17.282,3.331-25.954,5.043-25.28,4.972-50.85-4.972-74.688-14.788,2.806-2.841,4.205-5.562,3.552-9.468-5.718-1.52-12.018-4.454-13.5-10.193-1.605-6.329,3.473-12.153,6.009-18.177,4.787-11.365.646-25.393,6.954-35.977,1.421-2.429,3.4-4.574,4.475-7.188.987-2.4,1.172-5.043,1.712-7.586a25,25,0,0,1,.923-3.282c-1.193.327-2.4.625-3.551,1.009a28.341,28.341,0,0,0-18.667,20.741c-.54,2.543-.71,5.185-1.712,7.586-1.08,2.614-3.033,4.759-4.475,7.188-6.307,10.583-2.166,24.626-6.954,35.977-2.536,6.023-7.614,11.848-6.009,18.177,1.463,5.739,7.764,8.673,13.5,10.193.675,3.907-.71,6.663-3.552,9.468,23.838,9.8,49.409,19.8,74.688,14.789,8.673-1.712,17.118-5.185,25.954-5.043,6.272.1,12.473,2.031,18.731,1.591,13.2-.93,25.329-12.217,38.122-8.829-3.857.263-5.285,5.9-3.012,9.035s6.457,4.134,10.307,4.5,7.927.4,11.265,2.358c-2.529,5.263-11.585,7.1-10.711,12.892.32,2.088,2.01,3.672,3.686,4.972,17.225,13.19,40.949,11.926,62.507,14.206,15.9,1.662,31.481,5.547,47.327,7.621,25.315,3.3,50.978,1.953,76.464.59,4.624-.249,9.809-.76,12.785-4.312,3.09-3.708,2.415-8.808,1.74-13.8C644.033,733.348,620.672,734.208,597.608,731.2Z" transform="translate(-287.197 -537.901)"/>
      <path id="Path_921" data-name="Path 921" d="M353.729,551.7a27.4,27.4,0,0,1,9.681-5.569c3.069-.994,6.393-1.47,9.113-3.161s4.809-5.164,3.551-8.14c-1.726-4.127-8.438-4.745-9.383-9.127-.433-2.017.6-3.871,2.031-5.477l-19.1,16.337c-2.323,1.989-4.88,4.617-4.262,7.6C346.193,547.917,351.208,548.919,353.729,551.7Z" transform="translate(-304.02 -520.23)"/>
    </g>
    <path id="Path_922" data-name="Path 922" d="M442.5,539.954a5.682,5.682,0,0,0,.71-3.7,2.891,2.891,0,0,0-2.628-2.38l.149-2.046a2.343,2.343,0,0,0-.036-.71,1.129,1.129,0,0,0-2.2.5,6.912,6.912,0,0,0-1.818-2.642,3.679,3.679,0,0,0-5.086.938,3.978,3.978,0,0,0,.994,5.171,1.868,1.868,0,0,0-2.2.973c-2.131,3.828.71,5.817,3.949,6.393C437.88,543.016,440.55,543.819,442.5,539.954Z" transform="translate(-187.683 -190.351)" fill="#ffe9b3"/>
    <path id="Path_923" data-name="Path 923" d="M588.511,733.954a5.683,5.683,0,0,0,.71-3.7,2.891,2.891,0,0,0-2.628-2.38l.149-2.046a2.348,2.348,0,0,0,0-.71,1.13,1.13,0,0,0-2.2.5,6.91,6.91,0,0,0-1.818-2.642,3.679,3.679,0,0,0-5.086.938,3.978,3.978,0,0,0,.995,5.171,1.868,1.868,0,0,0-2.2.973c-2.131,3.829.71,5.817,3.949,6.393C583.894,737.016,586.565,737.818,588.511,733.954Z" transform="translate(-229.993 -246.553)" fill="#ffe9b3"/>
    <path id="Path_924" data-name="Path 924" d="M688.511,542.954a5.682,5.682,0,0,0,.71-3.7,2.891,2.891,0,0,0-2.628-2.38l.149-2.046a2.344,2.344,0,0,0,0-.71,1.129,1.129,0,0,0-2.2.5,6.911,6.911,0,0,0-1.818-2.642,3.679,3.679,0,0,0-5.086.938,3.978,3.978,0,0,0,.994,5.171,1.868,1.868,0,0,0-2.2.973c-2.131,3.828.71,5.817,3.949,6.393C683.894,546.016,686.565,546.819,688.511,542.954Z" transform="translate(-258.963 -191.22)" fill="#ffe9b3"/>
    <path id="Path_925" data-name="Path 925" d="M708.423,539.473a5.682,5.682,0,0,0,2.742-2.578,2.884,2.884,0,0,0-.71-3.466l1.314-1.577a2.316,2.316,0,0,0,.412-.611,1.131,1.131,0,0,0-2.081-.888,6.9,6.9,0,0,0,.078-3.2,3.679,3.679,0,0,0-4.674-2.223,3.971,3.971,0,0,0-2.223,4.766,1.875,1.875,0,0,0-2.351-.511c-3.964,1.854-2.841,5.107-.54,7.479C702.876,539.252,704.566,541.461,708.423,539.473Z" transform="translate(-265.515 -189.301)" fill="#ffe9b3"/>
    <path id="Path_926" data-name="Path 926" d="M491.05,550.31a5.683,5.683,0,0,0-3.708-.66,2.891,2.891,0,0,0-2.351,2.649l-2.046-.121a2.325,2.325,0,0,0-.71,0,1.179,1.179,0,0,0-.8,1.357,1.165,1.165,0,0,0,1.328.845,6.9,6.9,0,0,0-2.621,1.847,3.679,3.679,0,0,0,.994,5.072,3.978,3.978,0,0,0,5.157-1.044,1.861,1.861,0,0,0,.994,2.188c3.85,2.081,5.81-.71,6.336-4.02C494.169,554.9,494.936,552.228,491.05,550.31Z" transform="translate(-202.135 -196.502)" fill="#ffe9b3"/>
    <path id="Path_927" data-name="Path 927" d="M491.05,550.31a5.683,5.683,0,0,0-3.708-.66,2.891,2.891,0,0,0-2.351,2.649l-2.046-.121a2.325,2.325,0,0,0-.71,0,1.179,1.179,0,0,0-.8,1.357,1.165,1.165,0,0,0,1.328.845,6.9,6.9,0,0,0-2.621,1.847,3.679,3.679,0,0,0,.994,5.072,3.978,3.978,0,0,0,5.157-1.044,1.861,1.861,0,0,0,.994,2.188c3.85,2.081,5.81-.71,6.336-4.02C494.169,554.9,494.936,552.228,491.05,550.31Z" transform="translate(-202.135 -196.502)" opacity="0.15"/>
    <path id="Path_928" data-name="Path 928" d="M579.169,621.548a5.761,5.761,0,0,0-.611-3.715,2.884,2.884,0,0,0-3.289-1.328l-.568-1.975a2.394,2.394,0,0,0-.284-.71,1.132,1.132,0,1,0-1.9,1.236,6.861,6.861,0,0,0-2.614-1.861,3.686,3.686,0,0,0-4.454,2.635,3.978,3.978,0,0,0,2.713,4.51,1.868,1.868,0,0,0-1.733,1.669c-.71,4.326,2.642,5.228,5.9,4.631C575.888,625.995,578.658,625.81,579.169,621.548Z" transform="translate(-227.009 -214.901)" fill="#ffe9b3"/>
    <path id="Path_929" data-name="Path 929" d="M579.169,621.548a5.761,5.761,0,0,0-.611-3.715,2.884,2.884,0,0,0-3.289-1.328l-.568-1.975a2.394,2.394,0,0,0-.284-.71,1.132,1.132,0,1,0-1.9,1.236,6.861,6.861,0,0,0-2.614-1.861,3.686,3.686,0,0,0-4.454,2.635,3.978,3.978,0,0,0,2.713,4.51,1.868,1.868,0,0,0-1.733,1.669c-.71,4.326,2.642,5.228,5.9,4.631C575.888,625.995,578.658,625.81,579.169,621.548Z" transform="translate(-227.009 -214.901)" opacity="0.15"/>
    <path id="Path_930" data-name="Path 930" d="M699.169,530.548a5.76,5.76,0,0,0-.611-3.715,2.884,2.884,0,0,0-3.289-1.328l-.568-1.975a2.394,2.394,0,0,0-.284-.71,1.132,1.132,0,0,0-1.9,1.236,6.861,6.861,0,0,0-2.614-1.861,3.686,3.686,0,0,0-4.453,2.635,3.977,3.977,0,0,0,2.713,4.51,1.868,1.868,0,0,0-1.733,1.669c-.71,4.326,2.642,5.228,5.9,4.631C695.887,534.995,698.658,534.81,699.169,530.548Z" transform="translate(-261.772 -188.538)" fill="#ffe9b3"/>
    <path id="Path_931" data-name="Path 931" d="M699.169,530.548a5.76,5.76,0,0,0-.611-3.715,2.884,2.884,0,0,0-3.289-1.328l-.568-1.975a2.394,2.394,0,0,0-.284-.71,1.132,1.132,0,0,0-1.9,1.236,6.861,6.861,0,0,0-2.614-1.861,3.686,3.686,0,0,0-4.453,2.635,3.977,3.977,0,0,0,2.713,4.51,1.868,1.868,0,0,0-1.733,1.669c-.71,4.326,2.642,5.228,5.9,4.631C695.887,534.995,698.658,534.81,699.169,530.548Z" transform="translate(-261.772 -188.538)" opacity="0.15"/>
  </g>
  <g id="Component_12_1" data-name="Component 12 – 1" transform="translate(0 426)">
    <g id="Mask_Group_13" data-name="Mask Group 13" transform="translate(0 -426)" clip-path="url(#clip-path-17)">
      <g id="Component_8_2" data-name="Component 8 – 2" transform="matrix(-0.999, -0.052, 0.052, -0.999, 382.738, 1204.472)">
        <g id="Mask_Group_10-2" data-name="Mask Group 10" transform="translate(-918)" clip-path="url(#clip-path-4)">
          <g id="Group_91-2" data-name="Group 91">
            <g id="Component_10_5-2" data-name="Component 10 – 5" transform="translate(918 -31)">
              <g id="Mask_Group_1-8" data-name="Mask Group 1" transform="translate(0 31)" clip-path="url(#clip-path-5)">
                <path id="Path_932-8" data-name="Path 932" d="M119.772,199.778s162,558.124,635.946,808.32S1186.575,1435.3,1186.575,1435.3l77.554-728.463L1207.257,61.777Z" transform="translate(-120.084 -199.778)" fill="url(#radial-gradient)"/>
              </g>
              <g id="Mask_Group_9-7" data-name="Mask Group 9" transform="translate(67)" clip-path="url(#clip-path-5)">
                <path id="Path_948-7" data-name="Path 948" d="M119.772,199.778s162,558.124,635.946,808.32S1186.575,1435.3,1186.575,1435.3l77.554-728.463L1207.257,61.777Z" transform="translate(-120.084 -199.778)" fill="url(#radial-gradient)"/>
              </g>
            </g>
            <g id="Component_10_6-2" data-name="Component 10 – 6" transform="translate(1059 -105)">
              <g id="Mask_Group_1-9" data-name="Mask Group 1" transform="translate(0 31)" clip-path="url(#clip-path-5)">
                <path id="Path_932-9" data-name="Path 932" d="M119.772,199.778s162,558.124,635.946,808.32S1186.575,1435.3,1186.575,1435.3l77.554-728.463L1207.257,61.777Z" transform="translate(-120.084 -199.778)" fill="url(#radial-gradient)"/>
              </g>
              <g id="Mask_Group_9-8" data-name="Mask Group 9" transform="translate(67)" clip-path="url(#clip-path-5)">
                <path id="Path_948-8" data-name="Path 948" d="M119.772,199.778s162,558.124,635.946,808.32S1186.575,1435.3,1186.575,1435.3l77.554-728.463L1207.257,61.777Z" transform="translate(-120.084 -199.778)" fill="url(#radial-gradient)"/>
              </g>
            </g>
            <g id="Component_10_7-2" data-name="Component 10 – 7" transform="translate(1203 -155)">
              <g id="Mask_Group_1-10" data-name="Mask Group 1" transform="translate(0 31)" clip-path="url(#clip-path-5)">
                <path id="Path_932-10" data-name="Path 932" d="M119.772,199.778s162,558.124,635.946,808.32S1186.575,1435.3,1186.575,1435.3l77.554-728.463L1207.257,61.777Z" transform="translate(-120.084 -199.778)" fill="url(#radial-gradient)"/>
              </g>
              <g id="Mask_Group_9-9" data-name="Mask Group 9" transform="translate(67)" clip-path="url(#clip-path-5)">
                <path id="Path_948-9" data-name="Path 948" d="M119.772,199.778s162,558.124,635.946,808.32S1186.575,1435.3,1186.575,1435.3l77.554-728.463L1207.257,61.777Z" transform="translate(-120.084 -199.778)" fill="url(#radial-gradient)"/>
              </g>
            </g>
            <g id="Component_10_8-2" data-name="Component 10 – 8" transform="translate(1337 -212)">
              <g id="Mask_Group_1-11" data-name="Mask Group 1" transform="translate(0 31)" clip-path="url(#clip-path-5)">
                <path id="Path_932-11" data-name="Path 932" d="M119.772,199.778s162,558.124,635.946,808.32S1186.575,1435.3,1186.575,1435.3l77.554-728.463L1207.257,61.777Z" transform="translate(-120.084 -199.778)" fill="url(#radial-gradient)"/>
              </g>
              <g id="Mask_Group_9-10" data-name="Mask Group 9" transform="translate(67)" clip-path="url(#clip-path-5)">
                <path id="Path_948-10" data-name="Path 948" d="M119.772,199.778s162,558.124,635.946,808.32S1186.575,1435.3,1186.575,1435.3l77.554-728.463L1207.257,61.777Z" transform="translate(-120.084 -199.778)" fill="url(#radial-gradient)"/>
              </g>
            </g>
            <g id="Component_10_9-2" data-name="Component 10 – 9" transform="translate(1476 -264)">
              <g id="Mask_Group_1-12" data-name="Mask Group 1" transform="translate(0 31)" clip-path="url(#clip-path-5)">
                <path id="Path_932-12" data-name="Path 932" d="M119.772,199.778s162,558.124,635.946,808.32S1186.575,1435.3,1186.575,1435.3l77.554-728.463L1207.257,61.777Z" transform="translate(-120.084 -199.778)" fill="url(#radial-gradient)"/>
              </g>
              <g id="Mask_Group_9-11" data-name="Mask Group 9" transform="translate(67)" clip-path="url(#clip-path-5)">
                <path id="Path_948-11" data-name="Path 948" d="M119.772,199.778s162,558.124,635.946,808.32S1186.575,1435.3,1186.575,1435.3l77.554-728.463L1207.257,61.777Z" transform="translate(-120.084 -199.778)" fill="url(#radial-gradient)"/>
              </g>
            </g>
            <g id="Component_10_10-2" data-name="Component 10 – 10" transform="translate(1594 -357)">
              <g id="Mask_Group_1-13" data-name="Mask Group 1" transform="translate(0 31)" clip-path="url(#clip-path-5)">
                <path id="Path_932-13" data-name="Path 932" d="M119.772,199.778s162,558.124,635.946,808.32S1186.575,1435.3,1186.575,1435.3l77.554-728.463L1207.257,61.777Z" transform="translate(-120.084 -199.778)" fill="url(#radial-gradient)"/>
              </g>
              <g id="Mask_Group_9-12" data-name="Mask Group 9" transform="translate(67)" clip-path="url(#clip-path-5)">
                <path id="Path_948-12" data-name="Path 948" d="M119.772,199.778s162,558.124,635.946,808.32S1186.575,1435.3,1186.575,1435.3l77.554-728.463L1207.257,61.777Z" transform="translate(-120.084 -199.778)" fill="url(#radial-gradient)"/>
              </g>
            </g>
          </g>
        </g>
      </g>
    </g>
  </g>
</svg>
